# xmcd CD database file
#
# Track frame offsets:
#	150
#	19174
#	38403
#	52927
#	69994
#	85355
#	102464
#	116593
#	134847
#	152771
#
# Disc length: 2188 seconds
#
# Revision: 1
# Processed by: cddbd v1.5.2PL0 Copyright (c) Steve Scherf et al.
# Submitted via: CDValet v3.40 - Copyright (c) 1996 - 1998 Greg Leichner
#
DISCID=80088a0a
DTITLE=Clark, Guy - Guy Clark
DYEAR=1900
DGENRE=
TTITLE0=Fool On The Roof
TTITLE1=Fools For Each Other
TTITLE2=Shade Of All Greens
TTITLE3=Voila, An American Dream
TTITLE4=One Paper Kid
TTITLE5=In The Jailhouse Now
TTITLE6=Comfort And Crazy
TTITLE7=Don't You Take It Too Bad
TTITLE8=The Houston Kid
TTITLE9=Fool On The Roof Blues
EXTD=
EXTT0=
EXTT1=
EXTT2=
EXTT3=
EXTT4=
EXTT5=
EXTT6=
EXTT7=
EXTT8=
EXTT9=
PLAYORDER=
